<?xml version="1.0" encoding="UTF-8"?>
<svg id="Layer_1" data-name="Layer 1" xmlns="http://www.w3.org/2000/svg" viewBox="0 0 789.21 118.28">
  <defs>
    <style>
      .cls-1 {
        fill-rule: evenodd;
      }

      .cls-1, .cls-2 {
        fill: #1a3a1a;
      }

      .cls-3 {
        fill: #1a3a1a;
      }

      .cls-4 {
        fill: #48a04e;
      }
    </style>
  </defs>
  <g id="Wordmark">
    <path class="cls-3" d="M164.62,79.98c-1.4,0-2.8-.67-3.65-1.83l-19.91-27.28v25.52c0,1.95-1.64,3.59-3.71,3.59-1.95,0-3.53-1.64-3.53-3.59v-33.19c0-2.37,2.01-4.57,4.69-4.57,1.52,0,3.04.73,3.96,1.95l19.37,26.31v-24.72c0-1.89,1.64-3.53,3.71-3.53,1.95,0,3.53,1.64,3.53,3.53v33.49c0,2.25-1.83,4.32-4.45,4.32Z"/>
    <path class="cls-3" d="M196.66,80.35c-12.18,0-20.77-8.89-20.77-21.01s8.59-21.01,20.77-21.01,20.83,8.89,20.83,21.01-8.65,21.01-20.83,21.01ZM196.66,44.78c-8.1,0-13.34,6.21-13.34,14.56s5.24,14.56,13.34,14.56,13.34-6.27,13.34-14.56-5.24-14.56-13.34-14.56Z"/>
    <path class="cls-3" d="M246.05,63.72l6.76,10.96c.3.55.49,1.16.49,1.77,0,1.71-1.46,3.53-3.59,3.53-1.22,0-2.38-.61-3.04-1.77l-8.1-13.7h-7v11.88c0,1.95-1.64,3.59-3.71,3.59-1.95,0-3.53-1.64-3.53-3.59v-33.01c0-2.37,1.95-4.38,4.38-4.38h13.58c8.04,0,13.28,5.24,13.28,12.79s-4.69,11.14-9.5,11.93ZM231.55,45.39v12.73h9.68c3.96,0,6.88-2.5,6.88-6.33s-2.92-6.4-6.88-6.4h-9.68Z"/>
    <path class="cls-3" d="M284.96,79.62h-17.9c-2.44,0-4.39-2.01-4.39-4.39v-33.07c0-1.89,1.58-3.53,3.66-3.53,1.95,0,3.59,1.64,3.59,3.53v31.06h15.04c1.71,0,3.17,1.4,3.17,3.11,0,1.89-1.46,3.29-3.17,3.29Z"/>
    <path class="cls-3" d="M319.37,79.62h-20.77c-2.44,0-4.39-2.01-4.39-4.39v-31.85c0-2.37,1.95-4.38,4.39-4.38h20.77c1.71,0,3.11,1.4,3.11,3.23s-1.4,3.17-3.11,3.17h-17.9v10.35h17.48c1.71,0,3.11,1.4,3.11,3.23s-1.4,3.17-3.11,3.17h-17.48v11.08h17.9c1.71,0,3.11,1.4,3.11,3.11,0,1.89-1.4,3.29-3.11,3.29Z"/>
    <path class="cls-3" d="M368.08,79.98c-2.01,0-3.59-1.64-3.59-3.59v-27.16l-12,29.48c-.3.73-1.03,1.28-2.01,1.28-.79,0-1.58-.55-1.89-1.28l-11.93-29.48v27.16c0,1.95-1.64,3.59-3.71,3.59-1.95,0-3.53-1.64-3.53-3.59v-32.94c0-2.5,2.07-4.57,4.57-4.57,3.11-.24,5.85.67,7,3.41l9.56,23.57,9.62-23.57c.85-2.07,2.86-3.41,5.18-3.41,3.29-.37,6.45,1.28,6.45,4.57v32.94c0,1.95-1.64,3.59-3.71,3.59Z"/>
  </g>
  <path id="Logo" class="cls-4" d="M99.9,18.29c0-5.86-4.5-10.64-10.22-11.2-.96-.22-1.96-.35-2.98-.35h-2.53c-6.63,0-12.02,5.39-12.02,12.02v.18s0,.01,0,.02v26.38l-28.89-28.88c-4.44-4.93-9.69-9.48-17.97-9.48-11.26,0-20.43,9.16-20.42,20.6v72.81c0,6.23,5.07,11.31,11.3,11.31h4.46c6.61,0,11.98-5.38,11.98-11.98v-27.01l23.38,23.38,5.46,6.08c4.45,4.95,9.71,9.54,18.03,9.54,11.26,0,20.43-9.16,20.42-20.6v-.18s0-.04,0-.06h0v-.24h0V19.93s0,0,0,0v-1.65ZM95.53,91.02c0,8.86-7.21,16.06-16.06,16.06-3.56,0-6.54-1.01-9.55-3.21,3.96-1.08,6.17-4.66,6.54-10.68v-.23s0,0,0,0l.06-74c0-4.2,3.42-7.61,7.62-7.61h4.46s.09.01.13.01c3.9.92,6.81,4.4,6.81,8.58v70.71s0,.38,0,.38ZM72.15,75.74l-39.54-39.56v-8.77c0-7.79,2.71-8.3,3.73-8.5,1.22-.24,2.97.33,4.07.88l31.74,31.72v24.23ZM28.3,25.48l-.06,74.24c0,4.2-3.42,7.62-7.62,7.62h-4.46c-3.83,0-6.94-3.11-6.94-6.94V27.41c0-8.86,7.21-16.06,16.06-16.06,3.59,0,6.62,1,9.78,3.37-1.19.29-2.2.82-3.08,1.54h-.35v.31c-1.95,1.82-3.09,4.78-3.34,8.91ZM32.61,42.37l39.54,39.54v9.15c-.01,7.74-2.72,8.26-3.76,8.46-.28.05-.54.16-.8.26-.71-.03-1.48-.21-2.18-.46l-32.8-32.8v-24.15Z"/>
  <g>
    <g id="_Compound_Path_" data-name="&amp;lt;Compound Path&amp;gt;">
      <polygon class="cls-1" points="600.47 24.15 600.47 10.59 557.43 10.59 542.44 10.59 542.44 107.35 557.43 107.35 600.47 107.35 600.47 93.66 557.56 93.66 557.56 63.66 592.91 63.66 592.91 49.97 557.56 49.97 557.56 24.15 600.47 24.15"/>
    </g>
    <g id="_Compound_Path_-2" data-name="&amp;lt;Compound Path&amp;gt;">
      <path class="cls-1" d="M653.94,56.92v13.75h19.17v17.94h-.14c-1.78.92-3.7,1.57-5.61,2.1,0,0-.14.13-.28.13s-.41,0-.54.13c-.14,0-.28,0-.41.13h-.41c-.14.13-.41.13-.55.13q-.14.13-.27.13c-.96.13-2.05.39-3.01.52h-.82c-.14,0-.28,0-.28.13h-2.05c-.14.13-.27.13-.41.13h-.96c-9.31,0-18.07-3.54-24.64-9.82-4.24-4.06-7.25-9.04-8.9-14.54-.68-2.36-1.09-4.85-1.23-7.34-.14-.65-.14-1.18-.14-1.7,0-.65,0-1.18.14-1.83v-1.44c.14-1.31.41-2.62.68-3.93q0-.13.14-.26c.82-3.54,2.19-6.81,4.24-9.95,0-.13.14-.39.28-.52.27-.39.55-.79.82-1.18,0,0,.14-.13.28-.26.54-.79,1.09-1.57,1.78-2.36.14,0,.14-.13.14-.13.55-.66,1.23-1.18,1.78-1.7,1.78-1.83,3.84-3.41,6.03-4.72.28-.13.55-.26.68-.39,5.34-3.14,11.5-4.72,17.94-4.72h2.19c.14,0,.28.13.41.13h1.23c.14.13.41.13.55.13h.27c.14,0,.41.13.55.13h.28c.55.13,1.23.13,1.78.26.14.13.28.13.28.13.27,0,.41,0,.55.13h.41c.14.13.28.13.41.13,2.05.52,4.24,1.31,6.3,2.23,2.46,1.18,4.79,2.49,6.85,4.19V14.87h-.14c-.28-.13-.55-.26-.82-.39-.14,0-.14-.13-.14-.13-5.47-2.36-11.23-3.67-17.11-4.06-.41-.13-.82-.13-1.23-.13h-2.6c-6.85,0-13.55,1.18-19.72,3.8-6.16,2.36-11.5,5.9-16.15,10.35-4.66,4.45-8.35,9.69-10.95,15.46-2.33,5.24-3.56,10.87-3.97,16.5v2.49c0,1.57.14,3.27.27,4.85.41,4.85,1.78,9.56,3.7,14.02,2.6,5.89,6.3,11,10.95,15.46,3.28,3.27,7.12,6.03,11.22,8.12,1.51.92,3.15,1.7,4.93,2.36.68.26,1.37.52,2.06.79.55.13.96.39,1.5.52h.14c5.06,1.7,10.54,2.49,16.02,2.49h2.6c6.43-.39,12.46-1.7,18.21-4.19l.14-.13c.28-.13.68-.26.96-.39.27-.13.55-.26.68-.39h.27q.14-.13.28-.26c.27,0,.55-.13.68-.26.14-.13.27-.13.41-.26.27-.13.41-.13.68-.26.14-.13.27-.13.41-.26.14-.13.28-.13.41-.26.27-.13.41-.26.55-.39.27,0,.41-.13.55-.26.14,0,.27-.13.41-.26.14,0,.41-.13.55-.26q.14-.13.28-.13l3.56-2.36v-40.08h-35.05Z"/>
    </g>
    <g id="_Compound_Path_-3" data-name="&amp;lt;Compound Path&amp;gt;">
      <rect class="cls-2" x="697.81" y="10.59" width="15.13" height="96.77"/>
    </g>
    <g id="_Compound_Path_-4" data-name="&amp;lt;Compound Path&amp;gt;">
      <path class="cls-1" d="M783.19,74.62c-1.44-4.53-4.31-8.79-8.48-12.55-2.08-1.94-4.95-4.66-7.3-6.99l-16.17-15.39c-4.04-3.88-4.17-6.86-3.65-8.67.78-2.72,3.65-4.92,7.04-5.56,2.74-.52,7.82-.52,12.78,5.43l11.87-9.44c-3.78-4.53-8.22-7.76-13.17-9.7-4.7-1.68-9.65-2.07-14.34-1.04-4.3.78-8.35,2.72-11.61,5.43-3.52,2.97-6,6.6-7.17,10.74-1.17,3.88-1.04,8.15.26,12.16,1.3,4.14,3.78,8.02,7.43,11.51l11.87,11.12c.52.52,7.57,7.37,11.87,11.38,2.74,2.59,5.74,6.47,4.44,10.87-1.17,3.88-5.22,7.11-10.18,8.02-2.87.65-6,.39-8.86-.78-3.52-1.29-6.78-3.88-9.52-7.5l-12,9.31c4.57,5.82,9.91,9.83,16.04,12.29,3.66,1.42,7.57,2.07,11.48,2.07,1.95,0,3.91-.13,5.86-.52,10.56-2.07,19.04-9.44,21.78-18.76,1.3-4.4,1.17-9.06-.26-13.45Z"/>
    </g>
    <g id="_Compound_Path_-5" data-name="&amp;lt;Compound Path&amp;gt;">
      <path class="cls-1" d="M486.48,10.16l-44.7,97.2h16.54l7.6-16.28,7.38-16.04,13.19-28.55,13.07,28.55h16.76l-29.83-64.88ZM523.69,91.19h-16.54l7.38,16.16h16.65l-7.49-16.16Z"/>
    </g>
  </g>
  <rect class="cls-2" x="405.71" y="6.59" width="4.74" height="103.57"/>
</svg>
